<?xml version="1.0" standalone="no"?>
<!DOCTYPE svg PUBLIC "-//W3C//DTD SVG 20010904//EN"
 "http://www.w3.org/TR/2001/REC-SVG-20010904/DTD/svg10.dtd">
<svg version="1.0" xmlns="http://www.w3.org/2000/svg"
 width="8766.000000pt" height="5646.000000pt" viewBox="0 0 8766.000000 5646.000000"
 preserveAspectRatio="xMidYMid meet">

<g transform="translate(0.000000,5646.000000) scale(0.100000,-0.100000)"
fill="#000000" stroke="none">
<path d="M32617 44020 c-97 -12 -198 -45 -302 -98 -74 -38 -107 -63 -185 -142
-162 -162 -234 -323 -247 -546 -23 -405 247 -763 644 -855 79 -18 114 -21 221
-17 109 4 141 10 225 38 53 18 132 54 174 80 68 42 80 46 96 35 11 -7 85 -73
165 -147 170 -156 406 -404 554 -585 116 -141 268 -342 268 -353 0 -4 -43 -40
-96 -80 -484 -363 -983 -875 -1360 -1395 -154 -211 -347 -512 -322 -502 365
151 570 211 877 257 396 60 866 52 1249 -21 573 -108 1109 -376 1529 -762 l72
-66 36 15 c151 63 626 128 1129 155 291 15 1009 7 1206 -15 650 -71 1154 -224
1544 -470 48 -31 89 -56 90 -56 2 0 43 48 92 108 121 145 310 332 459 451 476
383 1014 603 1670 683 172 21 695 18 865 -5 161 -22 351 -59 475 -92 50 -14
93 -25 98 -25 19 0 -259 394 -424 600 -206 257 -508 577 -758 804 l-53 49 17
31 c62 108 289 416 435 591 188 226 564 608 712 725 l28 21 32 -24 c50 -37
165 -92 248 -119 66 -20 95 -23 235 -23 154 0 163 2 255 33 349 120 571 426
571 787 1 181 -39 318 -132 461 -156 239 -411 376 -699 376 -403 0 -734 -272
-816 -669 -24 -116 -15 -301 20 -411 l27 -83 -48 -42 c-422 -367 -849 -847
-1134 -1274 -39 -59 -73 -109 -74 -111 -1 -1 -50 34 -109 78 -760 566 -1696
986 -2616 1174 -468 95 -875 136 -1360 136 -769 0 -1451 -111 -2165 -353 -472
-160 -987 -406 -1399 -667 l-59 -38 -90 122 c-112 150 -226 292 -335 416 -116
132 -403 420 -548 551 l-122 110 23 72 c83 260 40 528 -119 750 -169 238 -476
372 -769 337z"/>
<path d="M33625 39493 c-186 -13 -478 -64 -650 -114 -363 -107 -726 -294
-1015 -525 -113 -91 -359 -337 -445 -446 -37 -49 -70 -88 -72 -88 -1 0 -54 52
-115 116 -473 488 -1143 782 -2038 893 -334 42 -422 46 -945 46 -576 0 -980
-21 -1583 -80 -314 -31 -438 -80 -587 -230 -115 -115 -184 -251 -207 -410 -12
-88 -14 -57 32 -840 40 -701 71 -1350 95 -1985 34 -920 101 -2482 111 -2580
26 -277 190 -508 439 -620 136 -61 112 -60 1262 -59 l1048 0 85 23 c47 12 92
26 101 30 12 5 23 -2 40 -26 40 -55 137 -159 182 -193 52 -40 165 -98 232
-119 151 -48 326 -41 480 19 33 13 146 65 250 115 386 186 737 341 1085 480
134 53 227 102 279 147 l41 35 116 -117 c416 -417 921 -687 1478 -790 570
-104 1157 -51 1650 151 239 98 506 256 701 414 104 84 328 303 417 407 l70 83
21 -28 c102 -136 255 -236 422 -275 127 -31 577 -82 950 -108 231 -17 844 -17
1015 -1 805 77 1357 318 1721 750 l44 53 92 -138 c132 -198 245 -336 422 -514
216 -216 377 -342 616 -479 613 -354 1413 -460 2133 -284 207 51 353 104 557
204 196 96 361 200 525 333 110 89 281 251 369 351 l52 59 27 -25 c82 -76 231
-150 347 -173 70 -14 188 -15 940 -13 777 3 865 5 909 20 l49 17 78 -73 c127
-119 273 -182 450 -193 176 -11 249 12 650 200 146 69 378 173 514 231 l248
106 75 -80 c110 -119 215 -183 372 -227 61 -17 125 -18 980 -18 l915 0 85 28
c47 15 92 30 101 33 11 4 24 -8 43 -40 38 -65 140 -171 209 -218 123 -84 218
-114 462 -147 495 -68 1308 -89 1763 -46 848 81 1565 382 2072 871 l85 82 0
-151 c0 -130 3 -162 23 -221 83 -254 287 -443 539 -500 65 -14 226 -16 1585
-16 1467 0 1515 1 1595 20 216 52 391 193 488 395 20 40 60 167 95 300 65 245
92 335 200 675 94 293 104 342 97 465 -16 271 -163 497 -402 615 -113 56 -190
74 -317 74 -60 1 -108 3 -108 5 0 3 274 617 609 1365 334 749 619 1390 632
1426 20 57 23 83 24 220 0 138 -3 163 -24 225 -86 250 -270 420 -531 492 -61
17 -177 18 -2115 18 -1959 0 -2053 -1 -2115 -18 -201 -57 -341 -154 -440 -304
-54 -82 -95 -179 -113 -269 l-12 -62 -85 64 c-448 334 -1069 559 -1760 639
-507 58 -1237 43 -1942 -40 -241 -28 -327 -46 -416 -86 l-65 -29 -106 11 c-71
7 -446 9 -1151 7 l-1045 -4 -73 -22 c-170 -52 -337 -171 -407 -290 -11 -17
-22 -32 -26 -32 -3 0 -192 41 -420 90 -667 146 -690 151 -775 157 -121 9 -289
-30 -389 -88 -33 -20 -52 -20 -1114 -19 -1130 1 -1140 0 -1243 -41 -27 -11
-32 -7 -130 91 -328 328 -740 576 -1183 714 -327 101 -660 143 -1060 133 -502
-13 -892 -106 -1310 -312 -444 -219 -831 -559 -1126 -992 l-70 -103 -72 61
c-256 216 -633 400 -1026 500 -399 102 -754 139 -1336 139 -478 0 -840 -23
-1198 -75 -231 -33 -329 -59 -434 -115 l-88 -47 -120 117 c-501 486 -1101 756
-1825 820 -106 9 -448 11 -565 3z m-4796 -867 c434 -45 790 -126 1076 -242
607 -249 972 -650 1114 -1226 83 -335 86 -750 7 -1061 -131 -516 -497 -966
-958 -1182 -59 -27 -108 -55 -108 -62 0 -13 169 -240 374 -503 100 -127 194
-230 413 -449 156 -156 282 -285 281 -286 -2 0 -48 -18 -103 -40 -302 -116
-729 -305 -1143 -505 l-174 -84 -19 24 c-45 58 -165 229 -296 420 -156 227
-257 404 -460 805 -76 149 -138 263 -139 255 -2 -8 -8 -202 -13 -430 -6 -228
-14 -493 -17 -587 l-7 -173 -962 0 -962 0 -7 158 c-3 86 -18 402 -31 702 -22
489 -37 854 -90 2160 -22 541 -66 1382 -106 2033 -7 111 -8 191 -3 196 16 15
709 72 1099 90 284 14 1051 6 1234 -13z m5190 -136 c487 -33 919 -204 1306
-516 119 -95 331 -314 424 -438 198 -263 353 -571 445 -883 125 -423 153 -842
85 -1287 -91 -604 -373 -1159 -797 -1567 -373 -360 -822 -580 -1315 -644 -158
-20 -545 -20 -700 0 -458 60 -872 275 -1222 636 -417 430 -678 1002 -762 1670
-20 162 -23 537 -4 684 86 703 352 1283 787 1719 310 311 668 509 1071 592
100 21 171 28 323 34 107 3 200 7 205 8 6 1 75 -3 154 -8z m9212 -5 c53 -2
153 -16 223 -30 616 -124 1150 -539 1503 -1169 270 -481 409 -1131 363 -1691
-62 -745 -349 -1392 -821 -1850 -347 -337 -736 -532 -1176 -590 -155 -20 -542
-20 -700 0 -591 77 -1134 389 -1533 879 -267 329 -472 774 -559 1211 -51 261
-70 633 -42 870 76 661 331 1217 761 1659 143 147 236 224 404 337 206 139
442 246 678 308 272 72 463 86 899 66z m11039 -245 c850 -60 1478 -315 1925
-781 254 -265 427 -584 521 -957 177 -711 99 -1516 -200 -2052 -391 -701
-1105 -1107 -2091 -1190 -155 -13 -745 -13 -990 0 -284 15 -674 56 -691 72 -2
2 -19 445 -38 983 -20 539 -38 1050 -41 1135 -10 263 -35 782 -40 835 -3 28
-12 174 -20 325 -16 273 -64 1041 -86 1363 -7 100 -8 171 -3 176 19 18 583 74
904 90 244 12 685 12 850 1z m6780 -75 c0 -5 -289 -650 -542 -1210 -241 -535
-1188 -2652 -1188 -2657 0 -21 395 -9 727 22 207 19 342 42 480 80 37 10 69
17 71 15 2 -2 -38 -131 -88 -287 -76 -234 -157 -514 -220 -755 l-11 -43 -1424
0 -1424 0 14 48 c8 26 179 621 380 1322 202 701 387 1344 411 1429 25 84 43
155 42 157 -5 4 -457 -24 -573 -36 -55 -6 -185 -22 -288 -36 -104 -14 -190
-24 -193 -21 -3 2 -9 108 -14 233 -20 477 -60 1591 -60 1666 l0 78 1950 0
c1073 0 1950 -2 1950 -5z m-9080 -92 c0 -5 -5 -91 -10 -193 -6 -102 -26 -507
-45 -900 -19 -393 -44 -897 -55 -1120 -17 -350 -54 -1322 -76 -1992 l-7 -208
-808 0 -809 0 0 33 c0 32 -74 1698 -150 3382 -22 484 -40 908 -40 943 l0 62
1000 0 c550 0 1000 -3 1000 -7z m-13470 -37 c501 -61 851 -171 1130 -357 120
-80 278 -236 353 -351 171 -258 242 -594 207 -972 -35 -365 -178 -682 -409
-904 -79 -76 -215 -173 -288 -206 -24 -11 -43 -22 -43 -25 0 -3 18 -14 40 -24
161 -74 328 -293 376 -492 38 -155 16 -365 -52 -513 -88 -193 -227 -323 -468
-437 -235 -113 -500 -176 -861 -206 -186 -15 -831 -6 -1065 15 -312 29 -636
69 -647 79 -2 2 -10 190 -18 418 -47 1308 -86 2107 -165 3394 -17 264 -30 485
-30 492 0 22 264 62 575 87 279 23 281 23 775 21 348 -2 487 -6 590 -19z
m10135 -170 c264 -58 595 -128 735 -157 140 -29 257 -53 259 -55 2 -2 -25 -56
-59 -121 -121 -229 -369 -701 -520 -993 -144 -279 -269 -514 -591 -1113 -77
-141 -139 -263 -139 -270 0 -15 30 -50 301 -352 211 -235 404 -429 663 -666
80 -73 143 -136 139 -140 -5 -5 -147 -67 -316 -139 -170 -71 -448 -195 -618
-274 l-309 -143 -33 41 c-18 22 -80 106 -138 186 -259 358 -344 489 -509 778
-51 89 -96 162 -100 162 -4 0 -10 -116 -14 -257 -3 -142 -9 -354 -13 -470 l-6
-213 -756 0 -757 0 -32 993 c-33 1002 -50 1402 -77 1867 -25 422 -74 1109 -90
1283 l-6 57 956 0 955 0 -4 -22 c-3 -13 -8 -77 -11 -143 -3 -66 -26 -469 -50
-895 -24 -426 -42 -776 -39 -779 2 -2 6 -2 9 0 5 6 333 940 386 1104 35 104
151 481 234 758 24 81 29 88 48 83 12 -3 238 -52 502 -110z m490 -2598 c3
-104 5 -188 3 -188 -2 0 -39 39 -83 86 l-79 87 70 133 c82 158 78 164 89 -118z"/>
<path d="M28746 36304 c-3 -54 -9 -317 -12 -584 l-6 -486 96 8 c134 11 243 40
364 99 226 109 336 276 335 509 0 219 -90 368 -275 460 -114 55 -218 80 -369
87 l-127 6 -6 -99z"/>
<path d="M33285 37490 c-599 -68 -1112 -545 -1285 -1195 -141 -525 -52 -1082
241 -1520 111 -166 298 -350 465 -457 139 -89 347 -167 514 -194 155 -25 390
-15 528 21 363 94 661 310 879 637 581 872 292 2127 -592 2571 -221 110 -512
164 -750 137z m556 -1967 c57 -30 99 -78 132 -150 31 -67 31 -216 -1 -285 -89
-199 -324 -239 -452 -77 -108 136 -99 338 19 462 85 90 196 108 302 50z"/>
<path d="M43223 37490 c-236 -27 -468 -117 -666 -257 -107 -76 -278 -247 -354
-353 -394 -552 -453 -1300 -151 -1904 216 -432 557 -719 990 -831 138 -36 373
-46 528 -21 301 48 572 195 806 438 564 586 641 1566 177 2260 -231 346 -572
580 -950 652 -101 19 -286 27 -380 16z m426 -2046 c140 -41 234 -219 201 -380
-32 -154 -139 -254 -269 -254 -107 0 -196 63 -246 173 -97 211 32 466 241 476
11 1 44 -6 73 -15z"/>
<path d="M54580 36053 c0 -65 -9 -496 -20 -958 -11 -462 -20 -853 -20 -868 l0
-28 58 6 c323 38 581 184 737 419 128 194 178 386 179 686 1 193 -12 274 -64
400 -117 284 -412 460 -771 460 l-99 0 0 -117z"/>
<path d="M38466 36427 c-2 -7 -11 -185 -20 -397 -9 -212 -19 -398 -21 -414
l-5 -29 112 7 c213 12 341 57 423 148 99 110 122 304 53 447 -50 104 -181 194
-328 224 -108 23 -210 29 -214 14z"/>
<path d="M38414 34994 c-20 -5 -21 -12 -27 -246 -4 -133 -7 -288 -7 -345 l0
-103 83 0 c250 1 432 94 477 243 21 71 24 158 6 218 -31 110 -103 174 -234
211 -64 17 -255 32 -298 22z"/>
<path d="M40240 33165 c-20 -25 -152 -121 -240 -176 -630 -390 -1487 -512
-2785 -393 -434 39 -685 81 -816 134 -69 29 -205 105 -215 121 -3 5 -62 -45
-132 -111 -249 -235 -508 -418 -777 -550 -398 -195 -734 -283 -1197 -312 -495
-31 -1021 61 -1465 255 l-82 36 21 -57 c12 -31 182 -484 378 -1007 l357 -950
64 -32 c35 -17 1093 -526 2352 -1131 l2287 -1100 2581 1098 c1419 604 2582
1100 2584 1102 4 4 665 1923 665 1930 0 3 -37 -5 -82 -19 -680 -200 -1438
-170 -2083 84 -497 195 -935 521 -1289 958 -121 149 -110 139 -126 120z m-610
-2039 l0 -154 -92 -36 c-51 -19 -408 -157 -793 -305 l-700 -271 -717 308 -718
307 0 146 c0 80 3 149 7 152 3 4 683 7 1510 7 l1503 0 0 -154z"/>
</g>
</svg>
